<svg width="59" height="59" viewBox="0 0 59 59" fill="none" xmlns="http://www.w3.org/2000/svg">
<path d="M21.2013 31.4744C21.2013 24.7868 26.7611 19.3104 33.5511 19.3142C40.341 19.318 45.9046 24.7943 45.8989 31.4782C45.8915 33.2923 45.476 35.0816 44.6832 36.7134C43.8904 38.3452 42.7407 39.7777 41.3192 40.9049C42.8148 41.3712 44.2971 41.7484 45.7359 42.0517C48.3588 39.1286 49.809 35.3392 49.8076 31.4118C49.8076 22.6523 42.4565 15.4396 33.5511 15.4605C24.5679 15.4832 17.2642 22.6637 17.2813 31.4573C17.284 33.4256 17.6543 35.3761 18.3731 37.2085C19.7455 37.0474 21.1596 36.9393 22.5301 36.9166C21.6602 35.2342 21.2047 33.3684 21.2013 31.4744Z" fill="#041F60"/>
<path d="M31.9483 14.5053H35.2807L34.5907 13.948C34.7708 13.8021 34.8921 13.7073 35.0267 13.5992C34.3955 13.1841 34.3045 12.5927 34.4922 11.933C34.6154 11.5046 34.7746 11.0838 34.9357 10.6668C35.2997 9.73225 35.0722 8.86786 34.3481 8.49633C34.0531 8.33956 33.7185 8.27289 33.3859 8.30456C33.0533 8.33624 32.7373 8.46487 32.4772 8.67451C32.0127 9.0669 31.8687 9.78532 32.1151 10.5151C32.2762 10.9909 32.4696 11.4629 32.6061 11.9368C32.7956 12.5927 32.7027 13.1879 32.0753 13.5973L32.5075 13.9765L31.918 14.4049C31.9293 14.4371 31.9388 14.4712 31.9483 14.5053Z" fill="#041F60"/>
<path d="M46.6788 19.8321L47.2323 19.8795C47.0674 19.0094 47.5754 18.5355 48.2559 18.1735C48.5725 18.0085 48.9099 17.8815 49.2378 17.7375C49.9961 17.4038 50.4662 16.7897 50.4301 16.1603C50.4072 15.8161 50.2805 15.4869 50.0666 15.2161C49.8527 14.9454 49.5618 14.7459 49.2321 14.6439C48.5839 14.4543 47.9716 14.659 47.5602 15.3054C47.2645 15.7718 47.0825 16.3082 46.8191 16.7954C46.4684 17.4474 46.0021 17.9422 45.1547 17.7754V18.3308L44.8477 18.2929L46.7432 20.3439C46.73 20.2472 46.711 20.0633 46.6788 19.8321Z" fill="#041F60"/>
<path d="M44.6881 18.1299L44.5156 18.2683L44.8549 18.31L44.6881 18.1299Z" fill="#041F60"/>
<path d="M22.4697 18.1787L22.3711 18.2887L22.5607 18.2697L22.4697 18.1787Z" fill="#041F60"/>
<path d="M17.3885 17.4569C17.87 17.7602 18.4235 17.9498 18.9258 18.2246C19.5589 18.5715 20.0271 19.0397 19.8603 19.8624H20.4062C20.393 20.0823 20.3835 20.2624 20.3683 20.5088C21.0735 19.7297 21.7237 19.0075 22.372 18.2891L21.9076 18.3365C21.9227 18.126 21.9341 17.9763 21.9474 17.7905C21.1891 17.8417 20.8214 17.6863 20.4517 17.0892C20.2175 16.6863 20.0128 16.2669 19.8395 15.8343C19.485 15.0135 18.8614 14.5358 18.1903 14.5965C17.8503 14.6304 17.5285 14.7668 17.2676 14.9874C17.0067 15.2081 16.8188 15.5027 16.7288 15.8324C16.5525 16.4731 16.7554 17.055 17.3885 17.4569Z" fill="#041F60"/>
<path d="M51.3981 33.0064C51.8265 32.3563 52.3838 32.2482 53.0055 32.4036C53.4704 32.5359 53.9279 32.6928 54.376 32.8737C55.284 33.2225 56.1408 33.0045 56.5123 32.3051C56.6834 32.0165 56.7619 31.6824 56.7372 31.3479C56.7124 31.0133 56.5857 30.6944 56.374 30.4341C56.0138 29.9432 55.284 29.7896 54.5504 30.0304C54.0917 30.1801 53.6462 30.3754 53.1837 30.5119C52.4975 30.7147 51.8568 30.6635 51.4227 29.9963L51.1061 30.3943L50.7422 30.1707V32.8453C51.0815 32.3999 51.2464 32.6292 51.3981 33.0064Z" fill="#041F60"/>
<path d="M12.5916 32.9075C13.0655 32.7463 13.5394 32.553 14.0114 32.4184C14.6673 32.2289 15.2625 32.3217 15.6738 32.9549L15.9885 32.5549L16.3505 32.7767V30.0887C16.0074 30.6233 15.8691 30.2992 15.6966 29.9598C15.2644 30.6157 14.6881 30.7181 14.0512 30.5437C13.6012 30.4141 13.1583 30.261 12.7243 30.085C11.786 29.7229 10.9349 29.9523 10.5576 30.6821C10.4028 30.978 10.3383 31.3128 10.372 31.645C10.4057 31.9773 10.5361 32.2923 10.7472 32.5511C11.1396 33.0098 11.8675 33.152 12.5916 32.9075Z" fill="#041F60"/>
<path d="M29.5845 37.4059C30.1684 37.1342 30.6239 36.6462 30.8545 36.0449C30.9323 35.8212 30.8223 35.5027 31.2469 35.6127C31.4857 35.6449 31.7206 35.7008 31.9483 35.7795C32.1448 35.9096 32.3244 36.0637 32.4828 36.2382C32.2939 36.4953 32.1581 36.7875 32.0836 37.0977C32.009 37.4079 31.9972 37.7299 32.0488 38.0447C32.8885 38.2665 33.806 38.5281 34.8353 38.8408C35.1272 37.948 35.2599 37.0666 34.5907 36.2477C34.8087 36.0581 34.9699 35.8894 35.1499 35.7567C35.5006 35.5008 36.1698 35.5672 36.2304 35.8458C36.2801 36.1313 36.3926 36.4022 36.5598 36.6389C36.727 36.8756 36.9447 37.0722 37.1972 37.2144C37.7298 37.512 38.2644 37.8097 38.8122 38.0769C39.1913 38.2665 39.3126 38.5129 39.1572 38.9034C39.1136 39.0152 39.0871 39.1328 39.0302 39.3166H40.1069C40.0841 39.601 40.0633 39.8588 40.0405 40.1166C40.0083 40.4521 40.1941 40.5488 40.4197 40.3497C41.1134 39.728 41.7769 39.0721 42.4366 38.4143C42.4691 38.3649 42.4887 38.3082 42.4937 38.2492C42.4986 38.1903 42.4888 38.1311 42.465 38.0769C42.4233 38.0068 42.2603 37.984 42.1484 37.984C41.8944 37.984 41.6404 38.0125 41.3674 38.0295V36.9756C40.4045 37.2505 40.4083 37.2486 39.9969 36.4069C39.8074 36.0373 39.6178 35.6695 39.4055 35.3189C39.1326 34.8791 38.8368 34.4981 38.2852 34.3066C37.5024 34.0412 37.4625 33.4972 38.0729 32.8375C38.1544 32.7484 38.2303 32.648 38.3269 32.5399C39.0548 33.0726 39.8282 33.1086 40.6357 32.8489C41.0471 32.7181 41.4679 32.612 41.8679 32.4527C42.3266 32.2632 42.6261 32.375 42.8157 32.8319C42.8756 32.9486 42.9421 33.0619 43.0147 33.1712L43.7237 32.394L44.4421 33.1522C44.897 32.9304 44.9292 32.6954 44.8212 30.4055C44.8079 30.1174 44.8326 29.8103 44.4212 29.7989L43.6725 30.6178L43.1379 29.689C42.5105 30.7031 42.5124 30.6993 41.6461 30.4264C41.2196 30.2899 40.7893 30.1572 40.3533 30.0472C39.8642 29.9335 39.3885 29.8444 38.9032 30.1534C38.5089 30.4055 38.0597 30.4283 37.8473 29.8861C37.745 29.5915 37.6906 29.2824 37.6862 28.9706C37.6862 28.9251 37.9933 28.8966 38.1108 28.8018C38.5463 28.4859 38.9518 28.1306 39.3221 27.7403C39.5889 27.3788 39.8104 26.986 39.9818 26.5707C40.3988 25.731 40.3912 25.7291 41.2708 25.9566C41.2973 25.9566 41.3333 25.9319 41.4376 25.8864C41.4205 25.6059 41.4035 25.2969 41.3807 24.9254L42.5181 24.9822C42.4896 24.806 42.5181 24.6126 42.4328 24.5273C41.7902 23.879 41.1286 23.2459 40.4614 22.6222C40.3874 22.554 40.2339 22.573 40.1183 22.5521C40.0953 22.6667 40.0789 22.7825 40.069 22.899C40.069 23.153 40.069 23.4051 40.069 23.6459H39.0852C39.2975 24.641 39.2956 24.6373 38.3743 25.0922C38.0521 25.2514 37.7336 25.4201 37.4265 25.6097C36.9716 25.894 36.564 26.1784 36.3783 26.7698C36.1754 27.4086 36.0219 27.4579 35.4475 27.3005C35.1708 27.1928 34.9229 27.0221 34.7234 26.802C34.6779 26.7584 34.8182 26.5234 34.8675 26.3755C35.0722 25.7481 35.1803 25.1206 34.949 24.4685C34.7803 23.9946 34.6685 23.5018 34.496 23.0298C34.3633 22.6639 34.4808 22.4441 34.7992 22.2716C34.9244 22.209 35.0457 22.1408 35.2599 22.027L34.477 21.2859L35.3509 20.4632C34.1513 20.2301 32.9169 20.2436 31.7227 20.503L32.6705 21.2612L31.8611 22.0195C31.9415 22.0831 32.0279 22.139 32.1189 22.1863C32.6686 22.3758 32.7672 22.7113 32.5568 23.2364C32.384 23.6897 32.2434 24.1547 32.136 24.6278C32.009 25.132 31.9464 25.6116 32.2288 26.1291C32.5378 26.6864 32.4336 26.9537 31.9047 27.2133C31.625 27.3137 31.327 27.3531 31.0308 27.329C30.9872 27.329 30.9721 27.0522 30.8925 26.9404C30.6081 26.5518 30.3503 26.1215 29.9902 25.8144C29.6033 25.5212 29.1819 25.2767 28.7353 25.0865C27.8254 24.6335 27.8216 24.641 28.0263 23.6402H27.0008C27.0122 23.39 27.0312 23.1663 27.0312 22.9426C27.0242 22.8098 27.0097 22.6775 26.9876 22.5464C26.8568 22.5786 26.6881 22.573 26.6084 22.6545C25.9772 23.2383 25.3517 23.8316 24.7489 24.4458C24.6408 24.5557 24.6389 24.7699 24.5764 24.9747H25.7327V25.9604C26.7241 25.7177 26.7184 25.7215 27.1563 26.6105C27.3458 26.9802 27.5468 27.3385 27.7458 27.7005C27.8929 27.9821 28.1015 28.2269 28.3562 28.4169C28.6108 28.6069 28.9049 28.7372 29.2168 28.7981C29.3096 28.8189 29.4063 29.0085 29.4291 29.1298C29.4992 29.6776 29.2092 30.0586 28.8016 30.3714C27.9202 30.0055 27.7344 29.725 26.3923 30.1269C25.9791 30.252 25.5602 30.36 25.1602 30.5173C24.7602 30.6747 24.5062 30.542 24.3375 30.1723C24.2882 30.0624 24.2238 29.9619 24.1176 29.7686L23.3859 30.559C23.13 30.2804 22.8931 30.0264 22.6618 29.7762C22.2505 30.034 22.1519 30.8093 22.3093 32.629C22.3263 32.8186 22.4742 33.0081 22.5614 33.1977L23.3594 32.3599L24.0759 33.2451C24.6143 32.2518 24.6124 32.2556 25.5109 32.538C26.6141 32.8849 27.7174 33.3835 28.7959 32.5172C28.9855 32.7257 29.1751 32.8603 29.249 33.0442C29.3531 33.3383 29.4131 33.6462 29.4272 33.9578C29.4272 34.0071 29.1371 34.0507 29.0139 34.1474C28.6253 34.4355 28.1894 34.6971 27.8899 35.063C27.5743 35.5002 27.3061 35.9698 27.0899 36.4638C27.0027 36.6804 26.8789 36.8804 26.7241 37.0552C27.6577 37.1393 28.5865 37.2709 29.5068 37.4495C29.5257 37.4419 29.5561 37.423 29.5845 37.4059ZM33.5084 27.9943C35.3926 27.9943 37.0474 29.6757 37.0341 31.5561C37.0228 33.3854 35.4153 34.9341 33.5349 34.9284C33.0805 34.9284 32.6305 34.8383 32.2112 34.6632C31.7919 34.4881 31.4114 34.2315 31.0919 33.9083C30.7725 33.5851 30.5203 33.2018 30.35 32.7804C30.1798 32.3591 30.0948 31.9082 30.1001 31.4538C30.1096 29.5752 31.6772 27.9848 33.5084 27.9943Z" fill="#041F60"/>
<path d="M33.5338 33.8648C34.9195 33.8761 35.9165 32.8904 35.926 31.4991C35.9355 30.1077 34.9555 29.0898 33.5831 29.0841C33.2692 29.0809 32.9577 29.1395 32.6665 29.2566C32.3752 29.3738 32.1099 29.5471 31.8856 29.7668C31.6614 29.9865 31.4826 30.2482 31.3595 30.5369C31.2364 30.8257 31.1713 31.1359 31.1681 31.4498C31.1649 31.7637 31.2235 32.0752 31.3406 32.3664C31.4578 32.6577 31.6311 32.923 31.8508 33.1472C32.0705 33.3715 32.3322 33.5503 32.6209 33.6734C32.9097 33.7965 33.2199 33.8615 33.5338 33.8648ZM33.5565 30.1418C33.8185 30.1441 34.0739 30.2238 34.2906 30.371C34.5073 30.5181 34.6756 30.7262 34.7743 30.9688C34.873 31.2115 34.8976 31.4779 34.8452 31.7345C34.7927 31.9912 34.6654 32.2265 34.4794 32.411C34.2934 32.5954 34.057 32.7207 33.7999 32.7709C33.5428 32.8212 33.2766 32.7943 33.0348 32.6935C32.793 32.5928 32.5864 32.4227 32.4411 32.2047C32.2958 31.9868 32.2183 31.7307 32.2183 31.4688C32.2146 31.2925 32.2468 31.1174 32.3129 30.954C32.379 30.7906 32.4776 30.6423 32.6028 30.5182C32.7279 30.3941 32.877 30.2968 33.041 30.2321C33.2049 30.1674 33.3803 30.1367 33.5565 30.1418Z" fill="#041F60"/>
<path d="M10.7969 39.9705C10.7969 39.9705 18.3451 38.7952 27.0306 41.3922C35.7162 43.9891 41.6608 46.097 48.1759 45.4108C54.691 44.7246 56.2927 43.5986 56.2927 43.5986C56.2927 43.5986 47.7096 44.1863 38.8686 41.4415C30.0276 38.6967 27.914 38.2 23.1011 38.1583C18.2882 38.1166 12.6053 39.2843 10.7969 39.9705Z" fill="#3F51B6"/>
<path d="M0 43.9892C0 43.9892 9.78689 42.3799 21.041 45.9341C32.295 49.4883 40.012 52.3696 48.4587 51.4313C56.9054 50.493 59 48.95 59 48.95C59 48.95 47.8729 49.7537 36.4103 46.0004C24.9478 42.2472 22.1935 41.5761 15.9646 41.5098C9.73571 41.4435 2.34673 43.0509 0 43.9892Z" fill="#3F51B6"/>
</svg>
