<svg width="15" height="15" viewBox="0 0 15 15" fill="none" xmlns="http://www.w3.org/2000/svg">
<path d="M3.15115 9.01545C3.15115 9.84099 2.44482 10.5149 1.57595 10.5149C0.708579 10.5149 0 9.84099 0 9.01545C0 8.18991 0.708579 7.51667 1.57595 7.51667H3.15115V9.01545ZM3.94587 9.01545C3.94587 8.18991 4.65295 7.51667 5.52182 7.51667C6.3877 7.51667 7.09702 8.18991 7.09702 9.01545V12.7688C7.09702 13.5943 6.38844 14.2676 5.52182 14.2676C4.65295 14.2676 3.94587 13.5943 3.94587 12.7688V9.01545ZM5.52182 2.99827C4.65295 2.99827 3.94587 2.32361 3.94587 1.49878C3.94587 0.673952 4.65295 0 5.52182 0C6.3877 0 7.09702 0.673241 7.09702 1.49878V2.99827H5.52182ZM5.52182 3.75264C6.3877 3.75264 7.09702 4.42659 7.09702 5.25213C7.09702 6.07767 6.38844 6.75091 5.52182 6.75091H1.5767C0.709328 6.75091 0.000749061 6.07767 0.000749061 5.25213C0.000749061 4.42659 0.709328 3.75264 1.5767 3.75264H5.52182ZM11.8488 5.25213C11.8488 4.42659 12.5552 3.75264 13.424 3.75264C14.2914 3.75264 15 4.42659 15 5.25213C15 6.07767 14.2914 6.75091 13.424 6.75091H11.8488V5.25213ZM11.0541 5.25213C11.0541 6.07767 10.347 6.75091 9.47818 6.75091C8.6123 6.75091 7.90298 6.07767 7.90298 5.25213V1.49878C7.90298 0.673241 8.61155 0 9.47818 0C10.347 0 11.0541 0.673241 11.0541 1.49878V5.25213ZM9.47818 11.2693C10.347 11.2693 11.0541 11.944 11.0541 12.7688C11.0541 13.5936 10.347 14.2676 9.47818 14.2676C8.6123 14.2676 7.90298 13.5943 7.90298 12.7688V11.2693H9.47818ZM9.47818 10.5149C8.6123 10.5149 7.90298 9.84099 7.90298 9.01545C7.90298 8.18991 8.61155 7.51667 9.47818 7.51667H13.424C14.2914 7.51667 15 8.18991 15 9.01545C15 9.84099 14.2914 10.5149 13.424 10.5149H9.47818Z" fill="#666666"/>
</svg>
